<svg xmlns="http://www.w3.org/2000/svg" xmlns:xlink="http://www.w3.org/1999/xlink" viewBox="5362 1697 181 72.92">
  <defs>
    <style>
      .cls-1 {
        fill: url(#linear-gradient);
      }

      .cls-2 {
        fill: url(#linear-gradient-2);
      }

      .cls-3 {
        fill: url(#linear-gradient-3);
      }

      .cls-4 {
        fill: url(#linear-gradient-4);
      }
    </style>
    <linearGradient id="linear-gradient" x1="0.003" y1="0.5" x2="1.002" y2="0.5" gradientUnits="objectBoundingBox">
      <stop offset="0.002" stop-color="#1488cc"/>
      <stop offset="1" stop-color="#000061"/>
    </linearGradient>
    <linearGradient id="linear-gradient-2" x1="0" y1="0.5" x2="1" y2="0.5" xlink:href="#linear-gradient"/>
    <linearGradient id="linear-gradient-3" x1="0" y1="0.5" x2="1" y2="0.5" xlink:href="#linear-gradient"/>
    <linearGradient id="linear-gradient-4" y1="0.5" x2="1" y2="0.5" gradientUnits="objectBoundingBox">
      <stop offset="0" stop-color="#1488cc"/>
      <stop offset="0.002" stop-color="#1488cc"/>
      <stop offset="1" stop-color="#000061"/>
    </linearGradient>
  </defs>
  <g id="Group_287" data-name="Group 287" transform="translate(5362 1697)">
    <g id="Group_285" data-name="Group 285" transform="translate(72.389)">
      <path id="Path_174" data-name="Path 174" class="cls-1" d="M136.5,8.591V0h8.591V8.591Zm.424,64.328V20.736h7.637V72.92Z" transform="translate(-136.5)"/>
      <path id="Path_175" data-name="Path 175" class="cls-2" d="M216.868,47.307c-2.864-2.864-4.985-3.818-9.016-3.818-7.637,0-12.516,6.046-12.516,14l-.053,32.668H187.7V37.336h7.637V43.7c2.864-4.349,8.591-7,14.637-7,4.985,0,8.8,1.167,12.516,4.879Z" transform="translate(-160.547 -17.237)"/>
      <path id="Path_176" data-name="Path 176" class="cls-3" d="M268.137,65.444c0,11.455,5.3,18.031,15.379,18.031,6.046,0,9.546-1.8,13.682-5.94l5.2,4.561c-5.3,5.3-10.288,8.061-19.092,8.061-13.895,0-22.8-8.273-22.8-26.728,0-16.97,8.167-26.728,21.425-26.728,13.576,0,21.425,9.652,21.425,25.35v3.394Zm25.986-14.425a13.4,13.4,0,0,0-24.395,0c-1.273,2.758-1.379,4.455-1.591,8.7H295.82C295.5,55.474,295.4,53.776,294.123,51.019Z" transform="translate(-194.74 -17.237)"/>
    </g>
    <g id="Group_286" data-name="Group 286">
      <path id="Path_177" data-name="Path 177" class="cls-4" d="M55.631,72.92V0L0,28.266V51.495L22.91,36.645Z"/>
    </g>
  </g>
</svg>
