<svg xmlns="http://www.w3.org/2000/svg" viewBox="0 0 1708.31 688.23"><defs><style>.cls-1{fill:#fff;}</style></defs><title>Asset 6</title><g id="Layer_2" data-name="Layer 2"><g id="Layer_1-2" data-name="Layer 1"><path class="cls-1" d="M683.43,81.18V.11H764.5V81.18Zm4,607V195.79H759.5V688.23Z"/><path class="cls-1" d="M1214.89,283.76c-27-27-47-36-85.07-36-72.06,0-118.1,57.05-118.1,132.12l-.33,308.38H939.65V189.68h72.06v60.05c27-41,81.07-66.06,138.12-66.06,47,0,83.08,11,118.11,46Z"/><path class="cls-1" d="M1376,454.91c0,108.1,50,170.15,145.13,170.15,57.05,0,90.08-17,129.12-56.05l49,43c-50,50-97.08,76.07-180.16,76.07C1388,688.12,1304,610,1304,435.89c0-160.14,77.07-252.22,202.18-252.22,128.11,0,202.18,91.08,202.18,239.21v32Zm245.22-136.12c-21-45-62.06-74.06-115.1-74.06s-94.08,29-115.1,74.06c-12,26-13,42-15,82.07h261.23C1634.25,360.82,1633.25,344.81,1621.24,318.79Z"/><polygon class="cls-1" points="524.92 688.23 524.92 0 0 266.63 0 486.16 216.44 345.78 524.92 688.23"/></g></g></svg>